<svg xmlns="http://www.w3.org/2000/svg" xmlns:xlink="http://www.w3.org/1999/xlink" width="64" zoomAndPan="magnify" viewBox="0 0 48 48" height="64" preserveAspectRatio="xMidYMid meet" version="1.0"><defs><clipPath id="474441bfe4"><path d="M 0.488281 0 L 47.507812 0 L 47.507812 47.019531 L 0.488281 47.019531 Z M 0.488281 0 " clip-rule="nonzero"/></clipPath><clipPath id="298947b6e0"><path d="M 24 0 C 11.015625 0 0.488281 10.527344 0.488281 23.511719 C 0.488281 36.496094 11.015625 47.019531 24 47.019531 C 36.984375 47.019531 47.511719 36.496094 47.511719 23.511719 C 47.511719 10.527344 36.984375 0 24 0 Z M 24 0 " clip-rule="nonzero"/></clipPath><clipPath id="abb659d95c"><path d="M 32 15.390625 L 38.695312 15.390625 L 38.695312 23 L 32 23 Z M 32 15.390625 " clip-rule="nonzero"/></clipPath><clipPath id="7f72920f02"><path d="M 26.9375 19 L 31 19 L 31 24 L 26.9375 24 Z M 26.9375 19 " clip-rule="nonzero"/></clipPath><clipPath id="8bf8ed1b45"><path d="M 20 19 L 29 19 L 29 36 L 20 36 Z M 20 19 " clip-rule="nonzero"/></clipPath><clipPath id="cd629d9cfa"><path d="M 28.375 19.105469 L 17.382812 35.621094 L 5.148438 27.476562 L 16.140625 10.964844 Z M 28.375 19.105469 " clip-rule="nonzero"/></clipPath><clipPath id="0322ee0277"><path d="M 42.296875 28.375 L 31.304688 44.886719 L 5.617188 27.789062 L 16.609375 11.277344 Z M 42.296875 28.375 " clip-rule="nonzero"/></clipPath><clipPath id="48625a80aa"><path d="M 31.925781 21.472656 L 20.742188 38.273438 L 17.636719 36.207031 L 28.820312 19.40625 Z M 31.925781 21.472656 " clip-rule="nonzero"/></clipPath><clipPath id="746d5dbfc6"><path d="M 31.925781 21.472656 L 20.75 38.265625 L 17.644531 36.195312 L 28.820312 19.40625 Z M 31.925781 21.472656 " clip-rule="nonzero"/></clipPath><clipPath id="4b45ac8375"><path d="M 13 15 L 18 15 L 18 36 L 13 36 Z M 13 15 " clip-rule="nonzero"/></clipPath><clipPath id="2e68ebab34"><path d="M 28.375 19.105469 L 17.382812 35.621094 L 5.148438 27.476562 L 16.140625 10.964844 Z M 28.375 19.105469 " clip-rule="nonzero"/></clipPath><clipPath id="4321f8dfad"><path d="M 42.296875 28.375 L 31.304688 44.886719 L 5.617188 27.789062 L 16.609375 11.277344 Z M 42.296875 28.375 " clip-rule="nonzero"/></clipPath><clipPath id="90c8d247a0"><path d="M 25.652344 22.785156 L 17.128906 35.59375 L 5.269531 27.703125 L 13.796875 14.894531 Z M 25.652344 22.785156 " clip-rule="nonzero"/></clipPath><clipPath id="73915196f1"><path d="M 25.652344 22.785156 L 17.128906 35.59375 L 5.3125 27.730469 L 13.839844 14.921875 Z M 25.652344 22.785156 " clip-rule="nonzero"/></clipPath><clipPath id="88f48003e2"><path d="M 16.554688 24 L 28 24 L 28 31 L 16.554688 31 Z M 16.554688 24 " clip-rule="nonzero"/></clipPath><clipPath id="80ed8a107c"><path d="M 16 13 L 25 13 L 25 26 L 16 26 Z M 16 13 " clip-rule="nonzero"/></clipPath><clipPath id="f3d31fbfda"><path d="M 29.355469 21.996094 L 16.613281 25.523438 L 14.0625 16.320312 L 26.808594 12.789062 Z M 29.355469 21.996094 " clip-rule="nonzero"/></clipPath><clipPath id="f546615c95"><path d="M 32.351562 32.808594 L 19.605469 36.339844 L 14.117188 16.515625 L 26.863281 12.984375 Z M 32.351562 32.808594 " clip-rule="nonzero"/></clipPath><clipPath id="ce6483a68a"><path d="M 26.410156 22.753906 L 16.546875 25.484375 L 14.015625 16.351562 L 23.882812 13.621094 Z M 26.410156 22.753906 " clip-rule="nonzero"/></clipPath><clipPath id="662e6fcd09"><path d="M 26.410156 22.753906 L 16.546875 25.484375 L 14.027344 16.382812 L 23.890625 13.652344 Z M 26.410156 22.753906 " clip-rule="nonzero"/></clipPath></defs><g clip-path="url(#474441bfe4)"><g clip-path="url(#298947b6e0)"><path fill="#2e3b52" d="M 0.488281 0 L 47.511719 0 L 47.511719 47.019531 L 0.488281 47.019531 Z M 0.488281 0 " fill-opacity="1" fill-rule="nonzero"/></g></g><g clip-path="url(#abb659d95c)"><path fill="#9d775d" d="M 37.511719 19.582031 C 37.703125 19.535156 37.886719 19.472656 38.078125 19.429688 C 38.261719 19.382812 38.464844 19.34375 38.441406 19.109375 C 38.417969 18.902344 38.226562 18.886719 38.054688 18.867188 C 37.457031 18.796875 36.996094 18.472656 36.5625 18.085938 C 35.914062 17.507812 35.8125 16.707031 35.636719 15.933594 C 35.621094 15.859375 35.617188 15.785156 35.601562 15.710938 C 35.566406 15.554688 35.503906 15.40625 35.3125 15.421875 C 35.128906 15.433594 35.089844 15.582031 35.070312 15.746094 C 34.996094 16.40625 34.867188 17.050781 34.480469 17.621094 C 34.058594 18.234375 33.613281 18.75 32.746094 18.503906 C 32.566406 18.453125 32.300781 18.433594 32.277344 18.742188 C 32.3125 18.972656 32.46875 19.0625 32.644531 19.121094 C 33.882812 19.550781 34.546875 20.464844 34.589844 21.789062 C 34.59375 22.015625 34.617188 22.242188 34.636719 22.46875 C 34.652344 22.628906 34.640625 22.839844 34.867188 22.84375 C 35.121094 22.84375 35.101562 22.617188 35.113281 22.4375 C 35.148438 21.953125 35.242188 21.484375 35.457031 21.046875 C 35.878906 20.195312 36.628906 19.792969 37.511719 19.582031 Z M 37.097656 19.167969 C 36.082031 19.378906 35.460938 19.96875 34.96875 20.773438 C 34.675781 20.054688 34.363281 19.445312 33.769531 19.003906 C 34.585938 18.613281 34.964844 17.902344 35.359375 17.117188 C 35.628906 18.054688 36.269531 18.613281 37.097656 19.167969 Z M 37.097656 19.167969 " fill-opacity="1" fill-rule="nonzero"/></g><path fill="#9d775d" d="M 32.644531 27.539062 C 32.78125 27.507812 32.914062 27.464844 33.046875 27.429688 C 33.175781 27.398438 33.320312 27.371094 33.304688 27.203125 C 33.289062 27.058594 33.152344 27.046875 33.03125 27.035156 C 32.605469 26.984375 32.28125 26.753906 31.972656 26.480469 C 31.511719 26.070312 31.441406 25.503906 31.316406 24.953125 C 31.304688 24.902344 31.300781 24.847656 31.289062 24.792969 C 31.265625 24.683594 31.222656 24.578125 31.085938 24.589844 C 30.957031 24.601562 30.929688 24.703125 30.914062 24.820312 C 30.863281 25.289062 30.769531 25.746094 30.496094 26.148438 C 30.199219 26.585938 29.878906 26.949219 29.265625 26.777344 C 29.140625 26.738281 28.949219 26.726562 28.933594 26.945312 C 28.960938 27.109375 29.070312 27.171875 29.195312 27.214844 C 30.070312 27.519531 30.542969 28.167969 30.574219 29.105469 C 30.578125 29.265625 30.59375 29.425781 30.605469 29.585938 C 30.617188 29.703125 30.609375 29.851562 30.769531 29.851562 C 30.949219 29.851562 30.9375 29.691406 30.945312 29.566406 C 30.96875 29.222656 31.035156 28.890625 31.1875 28.582031 C 31.488281 27.972656 32.019531 27.6875 32.644531 27.539062 Z M 32.351562 27.246094 C 31.632812 27.394531 31.191406 27.816406 30.84375 28.386719 C 30.636719 27.875 30.414062 27.445312 29.992188 27.128906 C 30.570312 26.855469 30.839844 26.351562 31.117188 25.792969 C 31.308594 26.457031 31.765625 26.851562 32.351562 27.246094 Z M 32.351562 27.246094 " fill-opacity="1" fill-rule="nonzero"/><g clip-path="url(#7f72920f02)"><path fill="#9d775d" d="M 29.617188 21.875 C 29.714844 21.855469 29.808594 21.820312 29.90625 21.796875 C 30 21.777344 30.101562 21.753906 30.089844 21.632812 C 30.078125 21.53125 29.980469 21.523438 29.894531 21.511719 C 29.585938 21.476562 29.351562 21.308594 29.128906 21.113281 C 28.796875 20.816406 28.746094 20.40625 28.65625 20.011719 C 28.648438 19.972656 28.644531 19.933594 28.636719 19.894531 C 28.621094 19.816406 28.585938 19.742188 28.492188 19.75 C 28.394531 19.757812 28.378906 19.832031 28.367188 19.914062 C 28.328125 20.253906 28.261719 20.582031 28.066406 20.875 C 27.851562 21.1875 27.621094 21.449219 27.175781 21.324219 C 27.085938 21.300781 26.949219 21.289062 26.9375 21.449219 C 26.957031 21.566406 27.035156 21.609375 27.125 21.640625 C 27.757812 21.859375 28.097656 22.328125 28.121094 23.007812 C 28.125 23.121094 28.132812 23.238281 28.144531 23.351562 C 28.152344 23.4375 28.144531 23.542969 28.261719 23.542969 C 28.394531 23.546875 28.382812 23.429688 28.390625 23.339844 C 28.40625 23.089844 28.453125 22.851562 28.5625 22.628906 C 28.78125 22.191406 29.164062 21.984375 29.617188 21.875 Z M 29.402344 21.664062 C 28.882812 21.773438 28.566406 22.074219 28.316406 22.488281 C 28.164062 22.121094 28.003906 21.808594 27.699219 21.582031 C 28.117188 21.382812 28.3125 21.019531 28.515625 20.617188 C 28.652344 21.097656 28.980469 21.382812 29.402344 21.664062 Z M 29.402344 21.664062 " fill-opacity="1" fill-rule="nonzero"/></g><g clip-path="url(#8bf8ed1b45)"><g clip-path="url(#cd629d9cfa)"><g clip-path="url(#0322ee0277)"><g clip-path="url(#48625a80aa)"><g clip-path="url(#746d5dbfc6)"><path fill="#9d775d" d="M 29.640625 19.957031 C 30.15625 20.230469 30.347656 20.910156 30.066406 21.417969 C 29.445312 22.667969 28.824219 23.925781 28.207031 25.179688 C 26.902344 27.839844 25.398438 30.390625 23.914062 32.953125 C 22.945312 34.605469 22.027344 36.292969 20.953125 37.875 C 20.75 38.136719 20.304688 38.117188 20.171875 37.792969 C 19.941406 37.289062 20.175781 36.742188 20.332031 36.253906 C 20.675781 35.203125 21.144531 34.203125 21.589844 33.195312 C 23.378906 29.214844 25.480469 25.382812 27.574219 21.558594 C 27.828125 21.113281 28.019531 20.628906 28.300781 20.203125 C 28.617188 19.820312 29.203125 19.71875 29.640625 19.957031 " fill-opacity="1" fill-rule="nonzero"/></g></g></g></g></g><g clip-path="url(#4b45ac8375)"><g clip-path="url(#2e68ebab34)"><g clip-path="url(#4321f8dfad)"><g clip-path="url(#90c8d247a0)"><g clip-path="url(#73915196f1)"><path fill="#9d775d" d="M 13.976562 15.328125 C 14.578125 15.246094 15.066406 15.753906 15.097656 16.335938 C 15.222656 16.996094 15.445312 17.632812 15.621094 18.28125 C 16.75 23.203125 17.296875 28.257812 17.441406 33.304688 C 17.425781 33.925781 17.566406 34.601562 17.324219 35.1875 C 17.242188 35.328125 17.074219 35.40625 16.914062 35.382812 C 16.496094 35.3125 16.3125 34.835938 16.175781 34.488281 C 15.386719 32.085938 14.996094 29.566406 14.574219 27.078125 C 14.34375 25.632812 14.101562 24.1875 13.859375 22.742188 C 13.542969 20.960938 13.21875 19.175781 13.214844 17.359375 C 13.191406 17.046875 13.160156 16.738281 13.117188 16.425781 C 13.046875 15.894531 13.449219 15.394531 13.976562 15.328125 " fill-opacity="1" fill-rule="nonzero"/></g></g></g></g></g><g clip-path="url(#88f48003e2)"><path fill="#9d775d" d="M 17.003906 24.902344 C 18.488281 25.628906 19.964844 26.378906 21.460938 27.082031 C 23.484375 28.074219 25.621094 28.828125 27.625 29.855469 C 28.171875 30.203125 27.8125 31.09375 27.171875 30.953125 C 26.3125 30.691406 25.515625 30.257812 24.695312 29.898438 C 23.902344 29.535156 23.105469 29.179688 22.320312 28.800781 C 21.132812 28.226562 19.96875 27.605469 18.8125 26.96875 C 18.164062 26.609375 17.523438 26.238281 16.925781 25.796875 C 16.710938 25.617188 16.394531 25.410156 16.445312 25.089844 C 16.496094 24.832031 16.800781 24.796875 17.003906 24.902344 " fill-opacity="1" fill-rule="nonzero"/></g><g clip-path="url(#80ed8a107c)"><g clip-path="url(#f3d31fbfda)"><g clip-path="url(#f546615c95)"><g clip-path="url(#ce6483a68a)"><g clip-path="url(#662e6fcd09)"><path fill="#9d775d" d="M 23.78125 13.917969 C 24.121094 14.136719 24.148438 14.605469 23.910156 14.914062 C 23.683594 15.300781 23.519531 15.714844 23.324219 16.117188 C 21.75 19.085938 19.824219 21.867188 17.703125 24.46875 C 17.421875 24.773438 17.199219 25.175781 16.824219 25.367188 C 16.722656 25.398438 16.601562 25.367188 16.53125 25.285156 C 16.351562 25.066406 16.464844 24.75 16.550781 24.515625 C 17.195312 22.960938 18.097656 21.523438 18.96875 20.089844 C 19.480469 19.261719 19.988281 18.429688 20.496094 17.59375 C 21.113281 16.5625 21.726562 15.523438 22.515625 14.605469 C 22.640625 14.441406 22.761719 14.269531 22.875 14.09375 C 23.066406 13.796875 23.488281 13.71875 23.78125 13.917969 " fill-opacity="1" fill-rule="nonzero"/></g></g></g></g></g></svg>