<svg xmlns="http://www.w3.org/2000/svg" xmlns:xlink="http://www.w3.org/1999/xlink" width="90" zoomAndPan="magnify" viewBox="0 0 67.5 42" height="56" preserveAspectRatio="xMidYMid meet" version="1.0"><defs><g/><clipPath id="0e3a11cc09"><path d="M 11.117188 28.859375 L 52.140625 28.859375 L 52.140625 33.988281 L 11.117188 33.988281 Z M 11.117188 28.859375 " clip-rule="nonzero"/></clipPath></defs><g fill="#9d775d" fill-opacity="1"><g transform="translate(0.540697, 24.15932)"><g><path d="M 10.734375 -14.695312 L 4.585938 -9.484375 L 4.585938 -14.695312 L 1.25 -14.695312 L 1.25 0 L 4.585938 0 L 4.585938 -5.191406 L 10.734375 0 L 15.613281 0 L 6.753906 -7.335938 L 15.613281 -14.695312 Z M 10.734375 -14.695312 "/></g></g></g><g fill="#9d775d" fill-opacity="1"><g transform="translate(16.568647, 24.15932)"><g><path d="M 0.832031 -5.273438 C 0.832031 -1.585938 3.460938 0.207031 6.773438 0.207031 C 10.066406 0.207031 12.695312 -1.585938 12.695312 -5.273438 C 12.695312 -8.941406 10.066406 -10.734375 6.773438 -10.734375 C 3.460938 -10.734375 0.832031 -8.941406 0.832031 -5.273438 Z M 4.167969 -5.273438 C 4.167969 -7.023438 5.191406 -7.816406 6.773438 -7.816406 C 8.335938 -7.816406 9.359375 -7.023438 9.359375 -5.273438 C 9.359375 -3.5 8.335938 -2.710938 6.773438 -2.710938 C 5.191406 -2.710938 4.167969 -3.5 4.167969 -5.273438 Z M 4.167969 -5.273438 "/></g></g></g><g fill="#9d775d" fill-opacity="1"><g transform="translate(30.095487, 24.15932)"><g><path d="M 6.542969 -2.710938 C 4.941406 -2.710938 4.378906 -3.4375 4.378906 -5.355469 L 4.378906 -10.527344 L 1.042969 -10.527344 L 1.042969 -4.835938 C 1.042969 -1.585938 2.667969 0.207031 5.355469 0.207031 C 7.609375 0.207031 8.921875 -1.269531 9.335938 -3.148438 L 10.171875 -3.148438 L 9.546875 -1.269531 L 9.546875 0 L 12.882812 0 L 12.882812 -10.527344 L 9.546875 -10.527344 L 9.546875 -6.628906 C 9.546875 -3.667969 8.359375 -2.710938 6.542969 -2.710938 Z M 6.542969 -2.710938 "/></g></g></g><g fill="#9d775d" fill-opacity="1"><g transform="translate(44.018335, 24.15932)"><g><path d="M 5.148438 -11.566406 C 6.378906 -11.566406 7.148438 -12.152344 7.148438 -13.234375 C 7.148438 -14.296875 6.378906 -14.902344 5.148438 -14.902344 C 3.917969 -14.902344 3.1875 -14.296875 3.1875 -13.234375 C 3.1875 -12.152344 3.917969 -11.566406 5.148438 -11.566406 Z M 10.003906 0 L 10.003906 -2.917969 L 7.023438 -2.917969 L 7.023438 -8.984375 C 7.023438 -10.152344 6.378906 -10.796875 5.210938 -10.734375 L 1.25 -10.527344 L 1.25 -7.609375 L 3.8125 -7.734375 L 3.8125 -2.917969 L 0.832031 -2.917969 L 0.832031 0 Z M 10.003906 0 "/></g></g></g><g fill="#9d775d" fill-opacity="1"><g transform="translate(54.439629, 24.15932)"><g><path d="M 11.191406 -10.527344 L 0.832031 -10.527344 L 0.832031 -7.609375 L 8.273438 -7.609375 L 8.273438 -7.296875 L 0.832031 -5.523438 L 0.832031 0 L 11.191406 0 L 11.191406 -2.917969 L 3.75 -2.917969 L 3.75 -3.230469 L 11.191406 -5.003906 Z M 11.191406 -10.527344 "/></g></g></g><g clip-path="url(#0e3a11cc09)"><path fill="#9d775d" d="M 52.410156 32.730469 C 51.636719 32.496094 51.023438 32.050781 50.488281 31.492188 C 49.820312 30.78125 49.871094 30.453125 48.699219 31.351562 C 48.292969 31.664062 47.921875 32.019531 47.519531 32.332031 C 46.867188 32.84375 46.496094 32.785156 46.058594 32.078125 C 45.855469 31.738281 45.6875 31.367188 45.515625 31.003906 C 45.417969 30.808594 45.332031 30.609375 45.203125 30.304688 C 44.855469 30.683594 44.566406 31.003906 44.261719 31.316406 C 43.847656 31.753906 43.46875 32.234375 43.007812 32.605469 C 42.035156 33.386719 41.003906 33.207031 40.34375 32.132812 C 40.007812 31.589844 39.773438 30.988281 39.460938 30.328125 C 39.328125 30.527344 39.179688 30.707031 39.082031 30.90625 C 38.808594 31.464844 38.570312 32.042969 38.289062 32.597656 C 37.507812 34.105469 36.675781 34.320312 35.320312 33.28125 C 34.496094 32.644531 33.761719 31.886719 32.996094 31.179688 C 32.179688 30.417969 32.1875 30.410156 31.304688 31.136719 C 30.992188 31.390625 30.6875 31.648438 30.355469 31.878906 C 28.9375 32.867188 27.550781 32.65625 26.496094 31.269531 C 26.199219 30.882812 25.953125 30.460938 25.640625 29.972656 C 25.367188 30.121094 25.085938 30.238281 24.839844 30.410156 C 24.378906 30.722656 23.964844 31.105469 23.488281 31.390625 C 22.941406 31.722656 22.363281 32.035156 21.769531 32.257812 C 20.960938 32.5625 20.136719 32.464844 19.386719 32.050781 C 18.816406 31.746094 18.273438 31.390625 17.738281 31.039062 C 16.796875 30.402344 15.847656 30.363281 14.851562 30.90625 C 13.84375 31.457031 12.988281 32.191406 12.179688 32.992188 C 12.023438 33.148438 11.855469 33.296875 11.691406 33.445312 C 11.519531 33.601562 11.335938 33.621094 11.15625 33.414062 C 11.75 32.820312 12.3125 32.175781 12.945312 31.613281 C 13.507812 31.121094 14.132812 30.675781 14.777344 30.289062 C 15.816406 29.660156 16.886719 29.660156 17.9375 30.304688 C 18.332031 30.550781 18.734375 30.789062 19.140625 31.03125 C 20.261719 31.699219 21.375 31.707031 22.457031 30.929688 C 23.050781 30.5 23.625 30.046875 24.230469 29.628906 C 24.535156 29.414062 24.863281 29.207031 25.210938 29.066406 C 25.722656 28.859375 26.117188 29.007812 26.421875 29.472656 C 26.59375 29.726562 26.726562 30.015625 26.910156 30.269531 C 27.117188 30.550781 27.339844 30.839844 27.601562 31.070312 C 28.238281 31.640625 28.898438 31.6875 29.621094 31.253906 C 29.886719 31.085938 30.132812 30.898438 30.382812 30.707031 C 30.628906 30.519531 30.859375 30.3125 31.105469 30.121094 C 31.941406 29.488281 32.394531 29.496094 33.167969 30.203125 C 33.902344 30.882812 34.605469 31.597656 35.339844 32.28125 C 35.578125 32.507812 35.847656 32.71875 36.136719 32.886719 C 36.738281 33.238281 37.035156 33.175781 37.425781 32.605469 C 37.613281 32.332031 37.761719 32.027344 37.910156 31.730469 C 38.09375 31.351562 38.25 30.957031 38.429688 30.574219 C 38.554688 30.320312 38.6875 30.046875 38.859375 29.824219 C 39.378906 29.164062 39.957031 29.257812 40.246094 30.03125 C 40.359375 30.34375 40.453125 30.667969 40.566406 30.980469 C 40.664062 31.226562 40.773438 31.476562 40.921875 31.699219 C 41.390625 32.390625 41.984375 32.507812 42.605469 31.945312 C 43.132812 31.476562 43.578125 30.90625 44.054688 30.386719 C 44.269531 30.15625 44.46875 29.917969 44.707031 29.71875 C 45.203125 29.324219 45.671875 29.445312 45.9375 30.023438 C 46.09375 30.371094 46.199219 30.734375 46.363281 31.070312 C 46.480469 31.328125 46.644531 31.566406 46.820312 31.871094 C 47.238281 31.507812 47.59375 31.179688 47.980469 30.882812 C 48.351562 30.601562 48.730469 30.320312 49.136719 30.097656 C 49.53125 29.875 49.96875 29.898438 50.332031 30.1875 C 51.191406 30.890625 51.75 31.847656 52.410156 32.730469 Z M 52.410156 32.730469 " fill-opacity="1" fill-rule="nonzero"/></g></svg>