<svg xmlns="http://www.w3.org/2000/svg" xmlns:xlink="http://www.w3.org/1999/xlink" width="1024" zoomAndPan="magnify" viewBox="0 0 768 767.999994" height="1024" preserveAspectRatio="xMidYMid meet" version="1.0"><defs><g/><clipPath id="cd64e005bf"><path d="M 230.394531 483 L 537.894531 483 L 537.894531 521 L 230.394531 521 Z M 230.394531 483 " clip-rule="nonzero"/></clipPath></defs><g fill="#9d775d" fill-opacity="1"><g transform="translate(151.803351, 447.602914)"><g><path d="M 79.761719 -109.191406 L 34.074219 -70.46875 L 34.074219 -109.191406 L 9.292969 -109.191406 L 9.292969 0 L 34.074219 0 L 34.074219 -38.566406 L 79.761719 0 L 116.003906 0 L 50.179688 -54.519531 L 116.003906 -109.191406 Z M 79.761719 -109.191406 "/></g></g></g><g fill="#9d775d" fill-opacity="1"><g transform="translate(270.902175, 447.602914)"><g><path d="M 6.195312 -39.183594 C 6.195312 -11.769531 25.710938 1.546875 50.335938 1.546875 C 74.808594 1.546875 94.320312 -11.769531 94.320312 -39.183594 C 94.320312 -66.441406 74.808594 -79.761719 50.335938 -79.761719 C 25.710938 -79.761719 6.195312 -66.441406 6.195312 -39.183594 Z M 30.976562 -39.183594 C 30.976562 -52.195312 38.566406 -58.078125 50.335938 -58.078125 C 61.953125 -58.078125 69.539062 -52.195312 69.539062 -39.183594 C 69.539062 -26.019531 61.953125 -20.132812 50.335938 -20.132812 C 38.566406 -20.132812 30.976562 -26.019531 30.976562 -39.183594 Z M 30.976562 -39.183594 "/></g></g></g><g fill="#9d775d" fill-opacity="1"><g transform="translate(371.416021, 447.602914)"><g><path d="M 48.632812 -20.132812 C 36.707031 -20.132812 32.523438 -25.554688 32.523438 -39.804688 L 32.523438 -78.214844 L 7.742188 -78.214844 L 7.742188 -35.933594 C 7.742188 -11.769531 19.824219 1.546875 39.804688 1.546875 C 56.53125 1.546875 66.289062 -9.449219 69.386719 -23.386719 L 75.582031 -23.386719 L 70.933594 -9.449219 L 70.933594 0 L 95.714844 0 L 95.714844 -78.214844 L 70.933594 -78.214844 L 70.933594 -49.25 C 70.933594 -27.257812 62.105469 -20.132812 48.632812 -20.132812 Z M 48.632812 -20.132812 "/></g></g></g><g fill="#9d775d" fill-opacity="1"><g transform="translate(474.872477, 447.602914)"><g><path d="M 38.253906 -85.957031 C 47.394531 -85.957031 53.125 -90.292969 53.125 -98.347656 C 53.125 -106.246094 47.394531 -110.738281 38.253906 -110.738281 C 29.117188 -110.738281 23.695312 -106.246094 23.695312 -98.347656 C 23.695312 -90.292969 29.117188 -85.957031 38.253906 -85.957031 Z M 74.34375 0 L 74.34375 -21.683594 L 52.195312 -21.683594 L 52.195312 -66.753906 C 52.195312 -75.425781 47.394531 -80.226562 38.71875 -79.761719 L 9.292969 -78.214844 L 9.292969 -56.53125 L 28.34375 -57.460938 L 28.34375 -21.683594 L 6.195312 -21.683594 L 6.195312 0 Z M 74.34375 0 "/></g></g></g><g fill="#9d775d" fill-opacity="1"><g transform="translate(552.309947, 447.602914)"><g><path d="M 83.171875 -78.214844 L 6.195312 -78.214844 L 6.195312 -56.53125 L 61.488281 -56.53125 L 61.488281 -54.207031 L 6.195312 -41.042969 L 6.195312 0 L 83.171875 0 L 83.171875 -21.683594 L 27.878906 -21.683594 L 27.878906 -24.007812 L 83.171875 -37.171875 Z M 83.171875 -78.214844 "/></g></g></g><g clip-path="url(#cd64e005bf)"><path fill="#9d775d" d="M 537.265625 511.277344 C 531.503906 509.5625 526.96875 506.253906 522.984375 502.085938 C 518.019531 496.816406 518.386719 494.363281 509.6875 501.042969 C 506.683594 503.371094 503.925781 506.007812 500.921875 508.335938 C 496.082031 512.136719 493.324219 511.707031 490.074219 506.4375 C 488.542969 503.925781 487.316406 501.167969 486.03125 498.46875 C 485.292969 497 484.683594 495.527344 483.703125 493.261719 C 481.128906 496.078125 478.984375 498.46875 476.714844 500.796875 C 473.652344 504.046875 470.832031 507.601562 467.398438 510.359375 C 460.167969 516.179688 452.507812 514.832031 447.605469 506.867188 C 445.09375 502.820312 443.375 498.347656 441.046875 493.445312 C 440.066406 494.914062 438.964844 496.261719 438.226562 497.734375 C 436.207031 501.902344 434.429688 506.191406 432.34375 510.296875 C 426.523438 521.511719 420.332031 523.105469 410.28125 515.382812 C 404.152344 510.664062 398.699219 505.027344 393 499.757812 C 386.933594 494.117188 386.996094 494.058594 380.4375 499.449219 C 378.109375 501.351562 375.839844 503.25 373.390625 504.964844 C 362.847656 512.320312 352.550781 510.726562 344.707031 500.429688 C 342.503906 497.550781 340.664062 494.425781 338.335938 490.808594 C 336.3125 491.914062 334.230469 492.769531 332.390625 494.058594 C 328.957031 496.386719 325.894531 499.207031 322.339844 501.351562 C 318.292969 503.800781 314.003906 506.128906 309.59375 507.785156 C 303.585938 510.050781 297.457031 509.316406 291.882812 506.253906 C 287.652344 503.984375 283.609375 501.351562 279.625 498.714844 C 272.636719 493.996094 265.589844 493.691406 258.175781 497.734375 C 250.699219 501.839844 244.324219 507.292969 238.320312 513.238281 C 237.152344 514.402344 235.929688 515.507812 234.703125 516.609375 C 233.414062 517.773438 232.066406 517.898438 230.71875 516.363281 C 235.132812 511.953125 239.300781 507.171875 244.019531 503.003906 C 248.183594 499.328125 252.84375 496.019531 257.625 493.136719 C 265.34375 488.480469 273.3125 488.480469 281.09375 493.261719 C 284.035156 495.097656 287.039062 496.875 290.042969 498.652344 C 298.378906 503.617188 306.652344 503.679688 314.679688 497.917969 C 319.089844 494.730469 323.382812 491.359375 327.855469 488.234375 C 330.121094 486.640625 332.574219 485.109375 335.148438 484.066406 C 338.949219 482.535156 341.890625 483.640625 344.15625 487.070312 C 345.445312 488.96875 346.425781 491.117188 347.773438 493.015625 C 349.304688 495.097656 350.960938 497.242188 352.921875 498.960938 C 357.640625 503.1875 362.542969 503.554688 367.933594 500.308594 C 369.894531 499.082031 371.734375 497.671875 373.574219 496.261719 C 375.410156 494.855469 377.128906 493.320312 378.964844 491.914062 C 385.15625 487.195312 388.527344 487.253906 394.289062 492.523438 C 399.742188 497.550781 404.949219 502.882812 410.40625 507.96875 C 412.183594 509.625 414.203125 511.21875 416.351562 512.441406 C 420.824219 515.078125 423.03125 514.585938 425.910156 510.359375 C 427.320312 508.335938 428.421875 506.070312 429.527344 503.863281 C 430.875 501.042969 432.039062 498.101562 433.386719 495.28125 C 434.304688 493.382812 435.285156 491.359375 436.574219 489.707031 C 440.433594 484.804688 444.722656 485.476562 446.871094 491.238281 C 447.726562 493.566406 448.402344 495.957031 449.257812 498.285156 C 449.996094 500.125 450.792969 501.964844 451.894531 503.617188 C 455.386719 508.765625 459.800781 509.625 464.398438 505.457031 C 468.320312 501.964844 471.628906 497.734375 475.183594 493.875 C 476.777344 492.15625 478.246094 490.378906 480.023438 488.910156 C 483.703125 485.96875 487.195312 486.886719 489.15625 491.175781 C 490.320312 493.75 491.117188 496.449219 492.34375 498.960938 C 493.199219 500.859375 494.425781 502.636719 495.714844 504.90625 C 498.839844 502.207031 501.472656 499.757812 504.355469 497.550781 C 507.113281 495.46875 509.929688 493.382812 512.933594 491.726562 C 515.875 490.074219 519.125 490.257812 521.820312 492.402344 C 528.195312 497.613281 532.359375 504.722656 537.265625 511.277344 Z M 537.265625 511.277344 " fill-opacity="1" fill-rule="nonzero"/></g></svg>