<?xml version="1.0" encoding="UTF-8"?>
<svg xmlns="http://www.w3.org/2000/svg" xmlns:xlink="http://www.w3.org/1999/xlink" width="45px" height="28px" viewBox="0 0 45 28" version="1.1">
<defs>
<clipPath id="clip1">
  <path d="M 7.84375 19.699219 L 36.09375 19.699219 L 36.09375 23.167969 L 7.84375 23.167969 Z M 7.84375 19.699219 "/>
</clipPath>
</defs>
<g id="surface1">
<path style=" stroke:none;fill-rule:nonzero;fill:rgb(61.568627%,46.666667%,36.470588%);fill-opacity:1;" d="M 7.328125 6.460938 L 3.128906 10.015625 L 3.128906 6.460938 L 0.855469 6.460938 L 0.855469 16.488281 L 3.128906 16.488281 L 3.128906 12.949219 L 7.328125 16.488281 L 10.65625 16.488281 L 4.609375 11.480469 L 10.65625 6.460938 Z M 7.328125 6.460938 "/>
<path style=" stroke:none;fill-rule:nonzero;fill:rgb(61.568627%,46.666667%,36.470588%);fill-opacity:1;" d="M 11.507812 12.890625 C 11.507812 15.410156 13.300781 16.632812 15.5625 16.632812 C 17.8125 16.632812 19.605469 15.410156 19.605469 12.890625 C 19.605469 10.386719 17.8125 9.164062 15.5625 9.164062 C 13.300781 9.164062 11.507812 10.386719 11.507812 12.890625 Z M 13.785156 12.890625 C 13.785156 11.695312 14.480469 11.15625 15.5625 11.15625 C 16.628906 11.15625 17.328125 11.695312 17.328125 12.890625 C 17.328125 14.101562 16.628906 14.640625 15.5625 14.640625 C 14.480469 14.640625 13.785156 14.101562 13.785156 12.890625 Z M 13.785156 12.890625 "/>
<path style=" stroke:none;fill-rule:nonzero;fill:rgb(61.568627%,46.666667%,36.470588%);fill-opacity:1;" d="M 24.640625 14.640625 C 23.542969 14.640625 23.160156 14.140625 23.160156 12.832031 L 23.160156 9.304688 L 20.882812 9.304688 L 20.882812 13.1875 C 20.882812 15.410156 21.992188 16.632812 23.828125 16.632812 C 25.363281 16.632812 26.261719 15.621094 26.546875 14.339844 L 27.113281 14.339844 L 26.6875 15.621094 L 26.6875 16.488281 L 28.964844 16.488281 L 28.964844 9.304688 L 26.6875 9.304688 L 26.6875 11.964844 C 26.6875 13.984375 25.878906 14.640625 24.640625 14.640625 Z M 24.640625 14.640625 "/>
<path style=" stroke:none;fill-rule:nonzero;fill:rgb(61.568627%,46.666667%,36.470588%);fill-opacity:1;" d="M 33.1875 8.59375 C 34.027344 8.59375 34.554688 8.195312 34.554688 7.457031 C 34.554688 6.730469 34.027344 6.316406 33.1875 6.316406 C 32.351562 6.316406 31.851562 6.730469 31.851562 7.457031 C 31.851562 8.195312 32.351562 8.59375 33.1875 8.59375 Z M 36.503906 16.488281 L 36.503906 14.5 L 34.46875 14.5 L 34.46875 10.359375 C 34.46875 9.5625 34.027344 9.121094 33.230469 9.164062 L 30.527344 9.304688 L 30.527344 11.296875 L 32.277344 11.210938 L 32.277344 14.5 L 30.246094 14.5 L 30.246094 16.488281 Z M 36.503906 16.488281 "/>
<path style=" stroke:none;fill-rule:nonzero;fill:rgb(61.568627%,46.666667%,36.470588%);fill-opacity:1;" d="M 44.425781 9.304688 L 37.355469 9.304688 L 37.355469 11.296875 L 42.4375 11.296875 L 42.4375 11.511719 L 37.355469 12.71875 L 37.355469 16.488281 L 44.425781 16.488281 L 44.425781 14.5 L 39.347656 14.5 L 39.347656 14.285156 L 44.425781 13.074219 Z M 44.425781 9.304688 "/>
<g clip-path="url(#clip1)" clip-rule="nonzero">
<path style=" stroke:none;fill-rule:nonzero;fill:rgb(61.568627%,46.666667%,36.470588%);fill-opacity:1;" d="M 36.03125 22.339844 C 35.503906 22.179688 35.085938 21.878906 34.71875 21.496094 C 34.261719 21.011719 34.296875 20.785156 33.496094 21.398438 C 33.222656 21.613281 32.96875 21.855469 32.691406 22.070312 C 32.246094 22.417969 31.996094 22.378906 31.695312 21.894531 C 31.554688 21.664062 31.441406 21.410156 31.324219 21.164062 C 31.257812 21.027344 31.199219 20.890625 31.113281 20.683594 C 30.875 20.941406 30.675781 21.164062 30.46875 21.375 C 30.1875 21.675781 29.929688 22 29.613281 22.253906 C 28.949219 22.789062 28.246094 22.664062 27.796875 21.933594 C 27.566406 21.5625 27.40625 21.152344 27.191406 20.699219 C 27.101562 20.835938 27.003906 20.960938 26.933594 21.09375 C 26.75 21.476562 26.585938 21.871094 26.394531 22.25 C 25.859375 23.277344 25.289062 23.425781 24.367188 22.714844 C 23.804688 22.28125 23.304688 21.765625 22.78125 21.28125 C 22.222656 20.761719 22.226562 20.757812 21.625 21.253906 C 21.410156 21.425781 21.203125 21.601562 20.980469 21.757812 C 20.011719 22.433594 19.066406 22.289062 18.34375 21.34375 C 18.140625 21.078125 17.972656 20.789062 17.757812 20.457031 C 17.574219 20.558594 17.382812 20.640625 17.210938 20.757812 C 16.898438 20.972656 16.617188 21.230469 16.289062 21.425781 C 15.917969 21.652344 15.523438 21.867188 15.117188 22.019531 C 14.566406 22.226562 14.003906 22.160156 13.492188 21.878906 C 13.101562 21.667969 12.730469 21.425781 12.367188 21.183594 C 11.722656 20.75 11.078125 20.722656 10.394531 21.09375 C 9.707031 21.472656 9.121094 21.972656 8.570312 22.519531 C 8.464844 22.625 8.351562 22.726562 8.238281 22.828125 C 8.121094 22.9375 7.996094 22.945312 7.875 22.804688 C 8.277344 22.402344 8.660156 21.960938 9.09375 21.578125 C 9.476562 21.242188 9.90625 20.9375 10.34375 20.671875 C 11.054688 20.246094 11.785156 20.246094 12.5 20.683594 C 12.769531 20.851562 13.046875 21.015625 13.324219 21.179688 C 14.089844 21.636719 14.847656 21.640625 15.585938 21.113281 C 15.992188 20.820312 16.386719 20.507812 16.796875 20.222656 C 17.003906 20.074219 17.230469 19.933594 17.464844 19.839844 C 17.816406 19.699219 18.085938 19.800781 18.292969 20.117188 C 18.410156 20.289062 18.5 20.488281 18.625 20.660156 C 18.765625 20.851562 18.917969 21.050781 19.097656 21.207031 C 19.53125 21.597656 19.980469 21.628906 20.476562 21.332031 C 20.65625 21.21875 20.824219 21.089844 20.996094 20.960938 C 21.164062 20.832031 21.320312 20.691406 21.492188 20.558594 C 22.058594 20.125 22.371094 20.132812 22.898438 20.617188 C 23.398438 21.078125 23.878906 21.566406 24.378906 22.035156 C 24.542969 22.1875 24.726562 22.332031 24.925781 22.445312 C 25.335938 22.6875 25.539062 22.644531 25.800781 22.253906 C 25.933594 22.070312 26.035156 21.859375 26.136719 21.65625 C 26.257812 21.398438 26.367188 21.128906 26.488281 20.871094 C 26.574219 20.695312 26.664062 20.507812 26.78125 20.355469 C 27.136719 19.90625 27.53125 19.96875 27.726562 20.5 C 27.808594 20.710938 27.867188 20.929688 27.949219 21.144531 C 28.015625 21.3125 28.089844 21.484375 28.191406 21.636719 C 28.511719 22.109375 28.914062 22.1875 29.339844 21.804688 C 29.699219 21.484375 30.003906 21.09375 30.328125 20.738281 C 30.476562 20.582031 30.609375 20.417969 30.773438 20.285156 C 31.113281 20.015625 31.433594 20.097656 31.613281 20.492188 C 31.71875 20.730469 31.792969 20.976562 31.90625 21.207031 C 31.984375 21.382812 32.097656 21.546875 32.214844 21.753906 C 32.5 21.503906 32.742188 21.28125 33.007812 21.078125 C 33.261719 20.886719 33.519531 20.695312 33.796875 20.542969 C 34.066406 20.390625 34.363281 20.40625 34.613281 20.605469 C 35.199219 21.082031 35.582031 21.738281 36.03125 22.339844 Z M 36.03125 22.339844 "/>
</g>
</g>
</svg>
