<?xml version="1.0" encoding="UTF-8"?>
<svg xmlns="http://www.w3.org/2000/svg" xmlns:xlink="http://www.w3.org/1999/xlink" width="180px" height="28px" viewBox="0 0 180 28" version="1.1">
<defs>
<clipPath id="clip1">
  <path d="M 54 17.609375 L 126 17.609375 L 126 18.996094 L 54 18.996094 Z M 54 17.609375 "/>
</clipPath>
</defs>
<g id="surface1">
<path style=" stroke:none;fill-rule:nonzero;fill:rgb(61.568627%,46.666667%,36.470588%);fill-opacity:1;" d="M 54.273438 12.339844 L 43.566406 13.75 L 43.566406 12.339844 L 37.757812 12.339844 L 37.757812 16.320312 L 43.566406 16.320312 L 43.566406 14.914062 L 54.273438 16.320312 L 62.765625 16.320312 L 47.339844 14.332031 L 62.765625 12.339844 Z M 54.273438 12.339844 "/>
<path style=" stroke:none;fill-rule:nonzero;fill:rgb(61.568627%,46.666667%,36.470588%);fill-opacity:1;" d="M 64.945312 14.890625 C 64.945312 15.890625 69.519531 16.375 75.289062 16.375 C 81.027344 16.375 85.597656 15.890625 85.597656 14.890625 C 85.597656 13.898438 81.027344 13.410156 75.289062 13.410156 C 69.519531 13.410156 64.945312 13.898438 64.945312 14.890625 Z M 70.753906 14.890625 C 70.753906 14.414062 72.53125 14.203125 75.289062 14.203125 C 78.011719 14.203125 79.789062 14.414062 79.789062 14.890625 C 79.789062 15.371094 78.011719 15.585938 75.289062 15.585938 C 72.53125 15.585938 70.753906 15.371094 70.753906 14.890625 Z M 70.753906 14.890625 "/>
<path style=" stroke:none;fill-rule:nonzero;fill:rgb(61.568627%,46.666667%,36.470588%);fill-opacity:1;" d="M 98.449219 15.585938 C 95.652344 15.585938 94.671875 15.386719 94.671875 14.867188 L 94.671875 13.46875 L 88.863281 13.46875 L 88.863281 15.007812 C 88.863281 15.890625 91.695312 16.375 96.378906 16.375 C 100.300781 16.375 102.585938 15.972656 103.3125 15.464844 L 104.765625 15.464844 L 103.675781 15.972656 L 103.675781 16.320312 L 109.484375 16.320312 L 109.484375 13.46875 L 103.675781 13.46875 L 103.675781 14.523438 C 103.675781 15.324219 101.605469 15.585938 98.449219 15.585938 Z M 98.449219 15.585938 "/>
<path style=" stroke:none;fill-rule:nonzero;fill:rgb(61.568627%,46.666667%,36.470588%);fill-opacity:1;" d="M 120.265625 13.183594 C 122.40625 13.183594 123.75 13.027344 123.75 12.734375 C 123.75 12.445312 122.40625 12.28125 120.265625 12.28125 C 118.121094 12.28125 116.851562 12.445312 116.851562 12.734375 C 116.851562 13.027344 118.121094 13.183594 120.265625 13.183594 Z M 128.722656 16.320312 L 128.722656 15.527344 L 123.53125 15.527344 L 123.53125 13.886719 C 123.53125 13.570312 122.40625 13.394531 120.371094 13.410156 L 113.476562 13.46875 L 113.476562 14.257812 L 117.941406 14.222656 L 117.941406 15.527344 L 112.75 15.527344 L 112.75 16.320312 Z M 128.722656 16.320312 "/>
<path style=" stroke:none;fill-rule:nonzero;fill:rgb(61.568627%,46.666667%,36.470588%);fill-opacity:1;" d="M 148.941406 13.46875 L 130.898438 13.46875 L 130.898438 14.257812 L 143.859375 14.257812 L 143.859375 14.34375 L 130.898438 14.824219 L 130.898438 16.320312 L 148.941406 16.320312 L 148.941406 15.527344 L 135.980469 15.527344 L 135.980469 15.445312 L 148.941406 14.964844 Z M 148.941406 13.46875 "/>
<g clip-path="url(#clip1)" clip-rule="nonzero">
<path style=" stroke:none;fill-rule:nonzero;fill:rgb(61.568627%,46.666667%,36.470588%);fill-opacity:1;" d="M 125.921875 18.640625 C 124.570312 18.578125 123.507812 18.457031 122.574219 18.304688 C 121.410156 18.113281 121.496094 18.023438 119.457031 18.265625 C 118.753906 18.351562 118.109375 18.449219 117.402344 18.53125 C 116.269531 18.671875 115.621094 18.65625 114.859375 18.464844 C 114.503906 18.371094 114.214844 18.273438 113.914062 18.171875 C 113.742188 18.121094 113.597656 18.066406 113.367188 17.984375 C 112.765625 18.085938 112.261719 18.171875 111.730469 18.257812 C 111.011719 18.375 110.351562 18.507812 109.546875 18.605469 C 107.851562 18.820312 106.054688 18.769531 104.90625 18.480469 C 104.320312 18.332031 103.914062 18.167969 103.371094 17.988281 C 103.140625 18.042969 102.882812 18.09375 102.710938 18.148438 C 102.234375 18.296875 101.820312 18.453125 101.332031 18.605469 C 99.964844 19.011719 98.515625 19.070312 96.160156 18.789062 C 94.722656 18.617188 93.445312 18.414062 92.109375 18.21875 C 90.6875 18.015625 90.703125 18.011719 89.164062 18.210938 C 88.621094 18.277344 88.085938 18.347656 87.511719 18.410156 C 85.042969 18.679688 82.628906 18.621094 80.789062 18.246094 C 80.273438 18.140625 79.84375 18.027344 79.296875 17.894531 C 78.824219 17.933594 78.335938 17.964844 77.902344 18.011719 C 77.097656 18.097656 76.382812 18.199219 75.546875 18.277344 C 74.601562 18.367188 73.59375 18.453125 72.5625 18.511719 C 71.152344 18.59375 69.714844 18.570312 68.410156 18.457031 C 67.417969 18.375 66.472656 18.277344 65.539062 18.183594 C 63.898438 18.011719 62.246094 18 60.511719 18.148438 C 58.757812 18.296875 57.261719 18.496094 55.855469 18.710938 C 55.582031 18.753906 55.296875 18.792969 55.007812 18.835938 C 54.707031 18.878906 54.390625 18.882812 54.074219 18.824219 C 55.109375 18.664062 56.085938 18.492188 57.191406 18.339844 C 58.167969 18.203125 59.261719 18.085938 60.382812 17.980469 C 62.191406 17.808594 64.058594 17.808594 65.882812 17.984375 C 66.570312 18.050781 67.273438 18.117188 67.980469 18.179688 C 69.933594 18.359375 71.871094 18.363281 73.753906 18.152344 C 74.785156 18.035156 75.792969 17.914062 76.839844 17.800781 C 77.371094 17.742188 77.945312 17.6875 78.550781 17.648438 C 79.441406 17.59375 80.128906 17.632812 80.660156 17.757812 C 80.964844 17.828125 81.195312 17.90625 81.507812 17.972656 C 81.867188 18.050781 82.257812 18.128906 82.714844 18.191406 C 83.820312 18.34375 84.972656 18.359375 86.234375 18.242188 C 86.695312 18.195312 87.125 18.144531 87.554688 18.09375 C 87.988281 18.042969 88.390625 17.984375 88.820312 17.933594 C 90.269531 17.761719 91.0625 17.765625 92.410156 17.957031 C 93.691406 18.140625 94.910156 18.335938 96.1875 18.519531 C 96.605469 18.582031 97.078125 18.636719 97.582031 18.683594 C 98.628906 18.777344 99.148438 18.761719 99.824219 18.605469 C 100.152344 18.53125 100.410156 18.449219 100.671875 18.371094 C 100.984375 18.265625 101.257812 18.160156 101.574219 18.058594 C 101.789062 17.988281 102.019531 17.914062 102.320312 17.855469 C 103.226562 17.675781 104.230469 17.699219 104.734375 17.910156 C 104.9375 17.996094 105.09375 18.082031 105.292969 18.167969 C 105.46875 18.234375 105.65625 18.300781 105.914062 18.359375 C 106.730469 18.546875 107.765625 18.582031 108.84375 18.429688 C 109.761719 18.300781 110.539062 18.148438 111.371094 18.007812 C 111.746094 17.941406 112.089844 17.878906 112.503906 17.824219 C 113.367188 17.71875 114.1875 17.75 114.644531 17.90625 C 114.917969 18 115.105469 18.101562 115.394531 18.191406 C 115.59375 18.261719 115.882812 18.324219 116.183594 18.40625 C 116.914062 18.308594 117.53125 18.21875 118.207031 18.140625 C 118.855469 18.0625 119.515625 17.988281 120.21875 17.925781 C 120.90625 17.867188 121.671875 17.875 122.300781 17.953125 C 123.796875 18.140625 124.773438 18.402344 125.921875 18.640625 Z M 125.921875 18.640625 "/>
</g>
</g>
</svg>
