<svg xmlns="http://www.w3.org/2000/svg" xmlns:xlink="http://www.w3.org/1999/xlink" width="180" zoomAndPan="magnify" viewBox="0 0 135 83.999999" height="112" preserveAspectRatio="xMidYMid meet" version="1.0"><defs><g/><clipPath id="5e36f3d922"><path d="M 21.65625 59.09375 L 106.40625 59.09375 L 106.40625 70 L 21.65625 70 Z M 21.65625 59.09375 " clip-rule="nonzero"/></clipPath></defs><g fill="#9d775d" fill-opacity="1"><g transform="translate(0.000000482143, 49.469081)"><g><path d="M 21.980469 -30.089844 L 9.390625 -19.417969 L 9.390625 -30.089844 L 2.5625 -30.089844 L 2.5625 0 L 9.390625 0 L 9.390625 -10.628906 L 21.980469 0 L 31.964844 0 L 13.828125 -15.023438 L 31.964844 -30.089844 Z M 21.980469 -30.089844 "/></g></g></g><g fill="#9d775d" fill-opacity="1"><g transform="translate(32.819134, 49.469081)"><g><path d="M 1.707031 -10.796875 C 1.707031 -3.242188 7.085938 0.425781 13.871094 0.425781 C 20.613281 0.425781 25.992188 -3.242188 25.992188 -10.796875 C 25.992188 -18.308594 20.613281 -21.980469 13.871094 -21.980469 C 7.085938 -21.980469 1.707031 -18.308594 1.707031 -10.796875 Z M 8.535156 -10.796875 C 8.535156 -14.382812 10.628906 -16.003906 13.871094 -16.003906 C 17.070312 -16.003906 19.164062 -14.382812 19.164062 -10.796875 C 19.164062 -7.171875 17.070312 -5.546875 13.871094 -5.546875 C 10.628906 -5.546875 8.535156 -7.171875 8.535156 -10.796875 Z M 8.535156 -10.796875 "/></g></g></g><g fill="#9d775d" fill-opacity="1"><g transform="translate(60.51695, 49.469081)"><g><path d="M 13.402344 -5.546875 C 10.113281 -5.546875 8.960938 -7.042969 8.960938 -10.96875 L 8.960938 -21.554688 L 2.132812 -21.554688 L 2.132812 -9.902344 C 2.132812 -3.242188 5.464844 0.425781 10.96875 0.425781 C 15.578125 0.425781 18.265625 -2.601562 19.121094 -6.445312 L 20.828125 -6.445312 L 19.546875 -2.601562 L 19.546875 0 L 26.375 0 L 26.375 -21.554688 L 19.546875 -21.554688 L 19.546875 -13.570312 C 19.546875 -7.511719 17.113281 -5.546875 13.402344 -5.546875 Z M 13.402344 -5.546875 "/></g></g></g><g fill="#9d775d" fill-opacity="1"><g transform="translate(89.025639, 49.469081)"><g><path d="M 10.542969 -23.6875 C 13.058594 -23.6875 14.640625 -24.882812 14.640625 -27.101562 C 14.640625 -29.277344 13.058594 -30.515625 10.542969 -30.515625 C 8.023438 -30.515625 6.53125 -29.277344 6.53125 -27.101562 C 6.53125 -24.882812 8.023438 -23.6875 10.542969 -23.6875 Z M 20.484375 0 L 20.484375 -5.976562 L 14.382812 -5.976562 L 14.382812 -18.394531 C 14.382812 -20.785156 13.058594 -22.109375 10.667969 -21.980469 L 2.5625 -21.554688 L 2.5625 -15.578125 L 7.808594 -15.832031 L 7.808594 -5.976562 L 1.707031 -5.976562 L 1.707031 0 Z M 20.484375 0 "/></g></g></g><g fill="#9d775d" fill-opacity="1"><g transform="translate(110.364478, 49.469081)"><g><path d="M 22.917969 -21.554688 L 1.707031 -21.554688 L 1.707031 -15.578125 L 16.945312 -15.578125 L 16.945312 -14.9375 L 1.707031 -11.308594 L 1.707031 0 L 22.917969 0 L 22.917969 -5.976562 L 7.683594 -5.976562 L 7.683594 -6.617188 L 22.917969 -10.242188 Z M 22.917969 -21.554688 "/></g></g></g><g clip-path="url(#5e36f3d922)"><path fill="#9d775d" d="M 106.214844 67.015625 C 104.628906 66.542969 103.378906 65.628906 102.28125 64.484375 C 100.914062 63.03125 101.015625 62.355469 98.617188 64.195312 C 97.789062 64.835938 97.027344 65.5625 96.199219 66.203125 C 94.867188 67.253906 94.105469 67.132812 93.210938 65.679688 C 92.789062 64.988281 92.453125 64.230469 92.097656 63.484375 C 91.894531 63.082031 91.726562 62.675781 91.457031 62.050781 C 90.746094 62.828125 90.15625 63.484375 89.53125 64.128906 C 88.6875 65.023438 87.910156 66.003906 86.964844 66.761719 C 84.96875 68.367188 82.859375 67.996094 81.507812 65.800781 C 80.816406 64.683594 80.34375 63.453125 79.703125 62.101562 C 79.429688 62.507812 79.128906 62.878906 78.925781 63.285156 C 78.367188 64.433594 77.878906 65.613281 77.304688 66.746094 C 75.699219 69.835938 73.992188 70.273438 71.222656 68.148438 C 69.535156 66.847656 68.03125 65.292969 66.460938 63.839844 C 64.789062 62.285156 64.804688 62.269531 63 63.757812 C 62.359375 64.28125 61.734375 64.804688 61.058594 65.277344 C 58.152344 67.300781 55.316406 66.863281 53.152344 64.027344 C 52.546875 63.234375 52.039062 62.371094 51.398438 61.375 C 50.839844 61.679688 50.265625 61.914062 49.757812 62.269531 C 48.8125 62.910156 47.96875 63.6875 46.988281 64.28125 C 45.875 64.957031 44.691406 65.597656 43.476562 66.054688 C 41.820312 66.679688 40.132812 66.476562 38.597656 65.628906 C 37.429688 65.007812 36.316406 64.28125 35.21875 63.554688 C 33.292969 62.253906 31.351562 62.167969 29.308594 63.285156 C 27.246094 64.414062 25.492188 65.917969 23.835938 67.554688 C 23.515625 67.875 23.179688 68.179688 22.839844 68.484375 C 22.484375 68.804688 22.113281 68.839844 21.742188 68.417969 C 22.957031 67.203125 24.105469 65.882812 25.40625 64.734375 C 26.554688 63.722656 27.839844 62.8125 29.15625 62.015625 C 31.285156 60.734375 33.480469 60.734375 35.625 62.050781 C 36.433594 62.558594 37.261719 63.046875 38.089844 63.535156 C 40.386719 64.90625 42.667969 64.921875 44.878906 63.335938 C 46.09375 62.457031 47.277344 61.527344 48.507812 60.664062 C 49.132812 60.226562 49.808594 59.804688 50.519531 59.515625 C 51.566406 59.09375 52.378906 59.398438 53 60.34375 C 53.355469 60.867188 53.625 61.460938 54 61.984375 C 54.421875 62.558594 54.875 63.148438 55.417969 63.621094 C 56.71875 64.785156 58.066406 64.886719 59.554688 63.992188 C 60.09375 63.65625 60.601562 63.265625 61.109375 62.878906 C 61.613281 62.488281 62.085938 62.066406 62.59375 61.679688 C 64.300781 60.378906 65.230469 60.394531 66.816406 61.847656 C 68.320312 63.234375 69.753906 64.703125 71.257812 66.105469 C 71.746094 66.558594 72.304688 67 72.894531 67.335938 C 74.128906 68.0625 74.738281 67.925781 75.53125 66.761719 C 75.917969 66.203125 76.222656 65.582031 76.527344 64.972656 C 76.898438 64.195312 77.21875 63.382812 77.589844 62.609375 C 77.84375 62.085938 78.113281 61.527344 78.46875 61.070312 C 79.53125 59.71875 80.714844 59.90625 81.304688 61.492188 C 81.542969 62.136719 81.726562 62.792969 81.964844 63.433594 C 82.167969 63.941406 82.386719 64.449219 82.691406 64.90625 C 83.652344 66.324219 84.867188 66.558594 86.136719 65.410156 C 87.214844 64.449219 88.128906 63.285156 89.109375 62.21875 C 89.546875 61.746094 89.953125 61.257812 90.441406 60.851562 C 91.457031 60.039062 92.417969 60.292969 92.957031 61.476562 C 93.277344 62.1875 93.5 62.929688 93.835938 63.621094 C 94.074219 64.144531 94.410156 64.632812 94.765625 65.257812 C 95.625 64.515625 96.351562 63.839844 97.144531 63.234375 C 97.90625 62.660156 98.683594 62.085938 99.511719 61.628906 C 100.320312 61.171875 101.214844 61.222656 101.960938 61.8125 C 103.714844 63.25 104.863281 65.207031 106.214844 67.015625 Z M 106.214844 67.015625 " fill-opacity="1" fill-rule="nonzero"/></g></svg>