<svg xmlns="http://www.w3.org/2000/svg" xmlns:xlink="http://www.w3.org/1999/xlink" width="360" viewBox="0 0 270 167.999997" height="224" preserveAspectRatio="xMidYMid meet" version="1.0"><defs><g/><clipPath id="01f76555da"><path d="M 47.0625 118.191406 L 216.5625 118.191406 L 216.5625 139 L 47.0625 139 Z M 47.0625 118.191406 " clip-rule="nonzero"/></clipPath></defs><g fill="#9d775d" fill-opacity="1"><g transform="translate(0.00000241071, 98.938157)"><g><path d="M 43.960938 -60.175781 L 18.777344 -38.835938 L 18.777344 -60.175781 L 5.121094 -60.175781 L 5.121094 0 L 18.777344 0 L 18.777344 -21.253906 L 43.960938 0 L 63.933594 0 L 27.65625 -30.046875 L 63.933594 -60.175781 Z M 43.960938 -60.175781 "/></g></g></g><g fill="#9d775d" fill-opacity="1"><g transform="translate(65.638268, 98.938157)"><g><path d="M 3.414062 -21.59375 C 3.414062 -6.488281 14.167969 0.855469 27.742188 0.855469 C 41.226562 0.855469 51.984375 -6.488281 51.984375 -21.59375 C 51.984375 -36.617188 41.226562 -43.960938 27.742188 -43.960938 C 14.167969 -43.960938 3.414062 -36.617188 3.414062 -21.59375 Z M 17.070312 -21.59375 C 17.070312 -28.765625 21.253906 -32.007812 27.742188 -32.007812 C 34.144531 -32.007812 38.324219 -28.765625 38.324219 -21.59375 C 38.324219 -14.339844 34.144531 -11.097656 27.742188 -11.097656 C 21.253906 -11.097656 17.070312 -14.339844 17.070312 -21.59375 Z M 17.070312 -21.59375 "/></g></g></g><g fill="#9d775d" fill-opacity="1"><g transform="translate(121.033899, 98.938157)"><g><path d="M 26.800781 -11.097656 C 20.230469 -11.097656 17.925781 -14.085938 17.925781 -21.9375 L 17.925781 -43.105469 L 4.269531 -43.105469 L 4.269531 -19.804688 C 4.269531 -6.488281 10.925781 0.855469 21.9375 0.855469 C 31.15625 0.855469 36.53125 -5.207031 38.242188 -12.890625 L 41.65625 -12.890625 L 39.09375 -5.207031 L 39.09375 0 L 52.75 0 L 52.75 -43.105469 L 39.09375 -43.105469 L 39.09375 -27.144531 C 39.09375 -15.023438 34.230469 -11.097656 26.800781 -11.097656 Z M 26.800781 -11.097656 "/></g></g></g><g fill="#9d775d" fill-opacity="1"><g transform="translate(178.051275, 98.938157)"><g><path d="M 21.082031 -47.375 C 26.121094 -47.375 29.277344 -49.761719 29.277344 -54.203125 C 29.277344 -58.554688 26.121094 -61.03125 21.082031 -61.03125 C 16.046875 -61.03125 13.058594 -58.554688 13.058594 -54.203125 C 13.058594 -49.761719 16.046875 -47.375 21.082031 -47.375 Z M 40.972656 0 L 40.972656 -11.949219 L 28.765625 -11.949219 L 28.765625 -36.789062 C 28.765625 -41.570312 26.121094 -44.214844 21.339844 -43.960938 L 5.121094 -43.105469 L 5.121094 -31.15625 L 15.621094 -31.667969 L 15.621094 -11.949219 L 3.414062 -11.949219 L 3.414062 0 Z M 40.972656 0 "/></g></g></g><g fill="#9d775d" fill-opacity="1"><g transform="translate(220.728953, 98.938157)"><g><path d="M 45.835938 -43.105469 L 3.414062 -43.105469 L 3.414062 -31.15625 L 33.886719 -31.15625 L 33.886719 -29.875 L 3.414062 -22.621094 L 3.414062 0 L 45.835938 0 L 45.835938 -11.949219 L 15.363281 -11.949219 L 15.363281 -13.230469 L 45.835938 -20.484375 Z M 45.835938 -43.105469 "/></g></g></g><g clip-path="url(#01f76555da)"><path fill="#9d775d" d="M 216.1875 134.03125 C 213.011719 133.085938 210.511719 131.261719 208.316406 128.964844 C 205.582031 126.058594 205.785156 124.710938 200.988281 128.390625 C 199.332031 129.675781 197.8125 131.125 196.15625 132.410156 C 193.488281 134.503906 191.96875 134.269531 190.179688 131.363281 C 189.335938 129.976562 188.660156 128.457031 187.949219 126.972656 C 187.542969 126.160156 187.207031 125.351562 186.667969 124.101562 C 185.246094 125.65625 184.066406 126.972656 182.816406 128.253906 C 181.128906 130.046875 179.574219 132.003906 177.683594 133.523438 C 173.695312 136.734375 169.476562 135.988281 166.773438 131.597656 C 165.386719 129.371094 164.441406 126.90625 163.160156 124.203125 C 162.617188 125.011719 162.011719 125.757812 161.605469 126.566406 C 160.492188 128.863281 159.511719 131.226562 158.363281 133.492188 C 155.152344 139.671875 151.742188 140.550781 146.203125 136.292969 C 142.824219 133.695312 139.820312 130.585938 136.679688 127.679688 C 133.335938 124.574219 133.367188 124.539062 129.753906 127.511719 C 128.472656 128.558594 127.222656 129.605469 125.871094 130.550781 C 120.0625 134.605469 114.386719 133.726562 110.0625 128.054688 C 108.847656 126.464844 107.835938 124.742188 106.550781 122.75 C 105.4375 123.359375 104.289062 123.832031 103.273438 124.539062 C 101.382812 125.824219 99.695312 127.378906 97.734375 128.558594 C 95.507812 129.910156 93.140625 131.195312 90.710938 132.105469 C 87.398438 133.355469 84.023438 132.949219 80.949219 131.261719 C 78.617188 130.011719 76.390625 128.558594 74.195312 127.105469 C 70.34375 124.507812 66.460938 124.335938 62.371094 126.566406 C 58.25 128.828125 54.738281 131.835938 51.429688 135.113281 C 50.789062 135.753906 50.113281 136.363281 49.4375 136.96875 C 48.726562 137.613281 47.984375 137.679688 47.242188 136.835938 C 49.671875 134.402344 51.96875 131.769531 54.570312 129.472656 C 56.867188 127.445312 59.433594 125.621094 62.070312 124.035156 C 66.324219 121.464844 70.714844 121.464844 75.003906 124.101562 C 76.625 125.113281 78.28125 126.09375 79.9375 127.074219 C 84.527344 129.808594 89.089844 129.84375 93.511719 126.667969 C 95.945312 124.910156 98.308594 123.054688 100.773438 121.332031 C 102.023438 120.453125 103.375 119.609375 104.792969 119.035156 C 106.886719 118.191406 108.511719 118.796875 109.757812 120.691406 C 110.46875 121.738281 111.007812 122.917969 111.753906 123.964844 C 112.597656 125.113281 113.507812 126.296875 114.589844 127.242188 C 117.191406 129.574219 119.890625 129.777344 122.863281 127.984375 C 123.945312 127.308594 124.957031 126.53125 125.972656 125.757812 C 126.984375 124.980469 127.929688 124.136719 128.945312 123.359375 C 132.355469 120.757812 134.214844 120.792969 137.386719 123.695312 C 140.394531 126.464844 143.265625 129.402344 146.269531 132.207031 C 147.25 133.121094 148.363281 133.996094 149.546875 134.671875 C 152.011719 136.125 153.230469 135.855469 154.816406 133.523438 C 155.59375 132.410156 156.199219 131.160156 156.808594 129.945312 C 157.550781 128.390625 158.195312 126.769531 158.9375 125.214844 C 159.441406 124.167969 159.984375 123.054688 160.691406 122.140625 C 162.820312 119.441406 165.183594 119.8125 166.367188 122.988281 C 166.839844 124.269531 167.210938 125.585938 167.683594 126.871094 C 168.089844 127.882812 168.527344 128.898438 169.136719 129.808594 C 171.0625 132.644531 173.492188 133.121094 176.027344 130.824219 C 178.1875 128.898438 180.011719 126.566406 181.972656 124.4375 C 182.851562 123.492188 183.660156 122.515625 184.640625 121.703125 C 186.667969 120.082031 188.589844 120.589844 189.671875 122.953125 C 190.3125 124.371094 190.753906 125.859375 191.429688 127.242188 C 191.902344 128.289062 192.578125 129.269531 193.285156 130.519531 C 195.007812 129.03125 196.460938 127.679688 198.046875 126.464844 C 199.570312 125.316406 201.121094 124.167969 202.777344 123.257812 C 204.398438 122.34375 206.1875 122.445312 207.675781 123.628906 C 211.1875 126.5 213.484375 130.417969 216.1875 134.03125 Z M 216.1875 134.03125 " fill-opacity="1" fill-rule="nonzero"/></g></svg>