<svg xmlns="http://www.w3.org/2000/svg" xmlns:xlink="http://www.w3.org/1999/xlink" width="1024" zoomAndPan="magnify" viewBox="0 0 768 767.999994" height="1024" preserveAspectRatio="xMidYMid meet" version="1.0"><defs><g/><clipPath id="d4a9c3afd0"><path d="M 123.203125 482 L 604.703125 482 L 604.703125 541 L 123.203125 541 Z M 123.203125 482 " clip-rule="nonzero"/></clipPath></defs><g fill="#9d775d" fill-opacity="1"><g transform="translate(0.000003, 426.490732)"><g><path d="M 125.039062 -171.171875 L 53.414062 -110.472656 L 53.414062 -171.171875 L 14.566406 -171.171875 L 14.566406 0 L 53.414062 0 L 53.414062 -60.457031 L 125.039062 0 L 181.855469 0 L 78.664062 -85.464844 L 181.855469 -171.171875 Z M 125.039062 -171.171875 "/></g></g></g><g fill="#9d775d" fill-opacity="1"><g transform="translate(186.704388, 426.490732)"><g><path d="M 9.710938 -61.425781 C 9.710938 -18.453125 40.304688 2.429688 78.910156 2.429688 C 117.269531 2.429688 147.863281 -18.453125 147.863281 -61.425781 C 147.863281 -104.160156 117.269531 -125.039062 78.910156 -125.039062 C 40.304688 -125.039062 9.710938 -104.160156 9.710938 -61.425781 Z M 48.558594 -61.425781 C 48.558594 -81.820312 60.457031 -91.046875 78.910156 -91.046875 C 97.117188 -91.046875 109.015625 -81.820312 109.015625 -61.425781 C 109.015625 -40.789062 97.117188 -31.5625 78.910156 -31.5625 C 60.457031 -31.5625 48.558594 -40.789062 48.558594 -61.425781 Z M 48.558594 -61.425781 "/></g></g></g><g fill="#9d775d" fill-opacity="1"><g transform="translate(344.27417, 426.490732)"><g><path d="M 76.238281 -31.5625 C 57.542969 -31.5625 50.988281 -40.0625 50.988281 -62.398438 L 50.988281 -122.613281 L 12.140625 -122.613281 L 12.140625 -56.328125 C 12.140625 -18.453125 31.078125 2.429688 62.398438 2.429688 C 88.621094 2.429688 103.917969 -14.808594 108.773438 -36.664062 L 118.484375 -36.664062 L 111.199219 -14.808594 L 111.199219 0 L 150.046875 0 L 150.046875 -122.613281 L 111.199219 -122.613281 L 111.199219 -77.210938 C 111.199219 -42.730469 97.359375 -31.5625 76.238281 -31.5625 Z M 76.238281 -31.5625 "/></g></g></g><g fill="#9d775d" fill-opacity="1"><g transform="translate(506.456913, 426.490732)"><g><path d="M 59.96875 -134.75 C 74.296875 -134.75 83.277344 -141.550781 83.277344 -154.175781 C 83.277344 -166.558594 74.296875 -173.597656 59.96875 -173.597656 C 45.644531 -173.597656 37.148438 -166.558594 37.148438 -154.175781 C 37.148438 -141.550781 45.644531 -134.75 59.96875 -134.75 Z M 116.542969 0 L 116.542969 -33.992188 L 81.820312 -33.992188 L 81.820312 -104.644531 C 81.820312 -118.242188 74.296875 -125.769531 60.699219 -125.039062 L 14.566406 -122.613281 L 14.566406 -88.621094 L 44.429688 -90.078125 L 44.429688 -33.992188 L 9.710938 -33.992188 L 9.710938 0 Z M 116.542969 0 "/></g></g></g><g fill="#9d775d" fill-opacity="1"><g transform="translate(627.851187, 426.490732)"><g><path d="M 130.382812 -122.613281 L 9.710938 -122.613281 L 9.710938 -88.621094 L 96.390625 -88.621094 L 96.390625 -84.980469 L 9.710938 -64.339844 L 9.710938 0 L 130.382812 0 L 130.382812 -33.992188 L 43.703125 -33.992188 L 43.703125 -37.632812 L 130.382812 -58.269531 Z M 130.382812 -122.613281 "/></g></g></g><g clip-path="url(#d4a9c3afd0)"><path fill="#9d775d" d="M 604.253906 526.308594 C 595.226562 523.621094 588.117188 518.433594 581.871094 511.898438 C 574.089844 503.636719 574.667969 499.792969 561.023438 510.265625 C 556.316406 513.917969 551.996094 518.046875 547.285156 521.699219 C 539.699219 527.65625 535.375 526.980469 530.28125 518.71875 C 527.878906 514.78125 525.960938 510.457031 523.941406 506.230469 C 522.789062 503.925781 521.828125 501.621094 520.292969 498.066406 C 516.257812 502.484375 512.894531 506.230469 509.339844 509.882812 C 504.535156 514.972656 500.117188 520.546875 494.738281 524.867188 C 483.402344 533.996094 471.390625 531.882812 463.707031 519.390625 C 459.769531 513.050781 457.078125 506.039062 453.425781 498.351562 C 451.890625 500.660156 450.160156 502.773438 449.007812 505.078125 C 445.839844 511.609375 443.050781 518.335938 439.785156 524.773438 C 430.660156 542.351562 420.957031 544.851562 405.199219 532.746094 C 395.59375 525.347656 387.042969 516.511719 378.109375 508.25 C 368.597656 499.410156 368.695312 499.3125 358.414062 507.769531 C 354.765625 510.746094 351.210938 513.722656 347.367188 516.414062 C 330.84375 527.941406 314.703125 525.445312 302.40625 509.304688 C 298.949219 504.789062 296.066406 499.890625 292.414062 494.222656 C 289.246094 495.953125 285.980469 497.296875 283.097656 499.3125 C 277.71875 502.964844 272.914062 507.382812 267.34375 510.746094 C 261 514.589844 254.277344 518.238281 247.359375 520.832031 C 237.945312 524.386719 228.335938 523.234375 219.59375 518.433594 C 212.964844 514.878906 206.625 510.746094 200.382812 506.617188 C 189.429688 499.21875 178.382812 498.738281 166.757812 505.078125 C 155.039062 511.515625 145.046875 520.066406 135.632812 529.382812 C 133.804688 531.207031 131.882812 532.9375 129.964844 534.667969 C 127.945312 536.492188 125.832031 536.683594 123.71875 534.28125 C 130.636719 527.367188 137.167969 519.871094 144.566406 513.339844 C 151.097656 507.574219 158.398438 502.386719 165.894531 497.871094 C 177.996094 490.570312 190.488281 490.570312 202.6875 498.066406 C 207.296875 500.945312 212.007812 503.734375 216.714844 506.519531 C 229.777344 514.300781 242.75 514.398438 255.332031 505.367188 C 262.25 500.371094 268.976562 495.085938 275.988281 490.1875 C 279.542969 487.691406 283.386719 485.289062 287.421875 483.65625 C 293.375 481.253906 297.988281 482.980469 301.542969 488.363281 C 303.558594 491.339844 305.097656 494.703125 307.210938 497.679688 C 309.613281 500.945312 312.207031 504.308594 315.28125 507 C 322.675781 513.628906 330.363281 514.203125 338.816406 509.113281 C 341.890625 507.191406 344.773438 504.980469 347.65625 502.773438 C 350.539062 500.5625 353.226562 498.160156 356.109375 495.953125 C 365.8125 488.554688 371.097656 488.648438 380.125 496.914062 C 388.675781 504.789062 396.84375 513.148438 405.394531 521.121094 C 408.179688 523.714844 411.347656 526.214844 414.710938 528.132812 C 421.722656 532.265625 425.183594 531.496094 429.699219 524.867188 C 431.90625 521.699219 433.636719 518.144531 435.367188 514.683594 C 437.480469 510.265625 439.304688 505.65625 441.417969 501.234375 C 442.859375 498.257812 444.398438 495.085938 446.414062 492.492188 C 452.464844 484.808594 459.191406 485.863281 462.554688 494.894531 C 463.898438 498.546875 464.957031 502.292969 466.300781 505.941406 C 467.453125 508.824219 468.703125 511.707031 470.429688 514.300781 C 475.90625 522.371094 482.824219 523.714844 490.03125 517.183594 C 496.179688 511.707031 501.367188 505.078125 506.9375 499.027344 C 509.433594 496.335938 511.742188 493.550781 514.527344 491.246094 C 520.292969 486.632812 525.765625 488.074219 528.839844 494.796875 C 530.667969 498.832031 531.914062 503.0625 533.835938 507 C 535.183594 509.976562 537.101562 512.761719 539.121094 516.316406 C 544.019531 512.089844 548.152344 508.25 552.667969 504.789062 C 556.988281 501.523438 561.410156 498.257812 566.117188 495.664062 C 570.726562 493.070312 575.820312 493.359375 580.046875 496.71875 C 590.039062 504.886719 596.570312 516.03125 604.253906 526.308594 Z M 604.253906 526.308594 " fill-opacity="1" fill-rule="nonzero"/></g></svg>