<svg xmlns="http://www.w3.org/2000/svg" xmlns:xlink="http://www.w3.org/1999/xlink" width="150" zoomAndPan="magnify" viewBox="0 0 112.5 42" height="56" preserveAspectRatio="xMidYMid meet" version="1.0"><defs><g/><clipPath id="9a27e041bd"><path d="M 24.113281 33 L 85.644531 33 L 85.644531 40.96875 L 24.113281 40.96875 Z M 24.113281 33 " clip-rule="nonzero"/></clipPath></defs><g fill="#9d775d" fill-opacity="1"><g transform="translate(7.041615, 25.929667)"><g><path d="M 15.945312 -21.828125 L 6.8125 -14.085938 L 6.8125 -21.828125 L 1.859375 -21.828125 L 1.859375 0 L 6.8125 0 L 6.8125 -7.707031 L 15.945312 0 L 23.1875 0 L 10.03125 -10.898438 L 23.1875 -21.828125 Z M 15.945312 -21.828125 "/></g></g></g><g fill="#9d775d" fill-opacity="1"><g transform="translate(30.848468, 25.929667)"><g><path d="M 1.238281 -7.832031 C 1.238281 -2.351562 5.140625 0.308594 10.0625 0.308594 C 14.953125 0.308594 18.855469 -2.351562 18.855469 -7.832031 C 18.855469 -13.28125 14.953125 -15.945312 10.0625 -15.945312 C 5.140625 -15.945312 1.238281 -13.28125 1.238281 -7.832031 Z M 6.191406 -7.832031 C 6.191406 -10.433594 7.707031 -11.609375 10.0625 -11.609375 C 12.382812 -11.609375 13.902344 -10.433594 13.902344 -7.832031 C 13.902344 -5.199219 12.382812 -4.023438 10.0625 -4.023438 C 7.707031 -4.023438 6.191406 -5.199219 6.191406 -7.832031 Z M 6.191406 -7.832031 "/></g></g></g><g fill="#9d775d" fill-opacity="1"><g transform="translate(50.94034, 25.929667)"><g><path d="M 9.722656 -4.023438 C 7.335938 -4.023438 6.5 -5.109375 6.5 -7.957031 L 6.5 -15.632812 L 1.546875 -15.632812 L 1.546875 -7.183594 C 1.546875 -2.351562 3.960938 0.308594 7.957031 0.308594 C 11.300781 0.308594 13.25 -1.886719 13.871094 -4.675781 L 15.109375 -4.675781 L 14.179688 -1.886719 L 14.179688 0 L 19.132812 0 L 19.132812 -15.632812 L 14.179688 -15.632812 L 14.179688 -9.84375 C 14.179688 -5.449219 12.414062 -4.023438 9.722656 -4.023438 Z M 9.722656 -4.023438 "/></g></g></g><g fill="#9d775d" fill-opacity="1"><g transform="translate(71.620415, 25.929667)"><g><path d="M 7.648438 -17.183594 C 9.472656 -17.183594 10.617188 -18.050781 10.617188 -19.660156 C 10.617188 -21.238281 9.472656 -22.136719 7.648438 -22.136719 C 5.820312 -22.136719 4.738281 -21.238281 4.738281 -19.660156 C 4.738281 -18.050781 5.820312 -17.183594 7.648438 -17.183594 Z M 14.859375 0 L 14.859375 -4.335938 L 10.433594 -4.335938 L 10.433594 -13.34375 C 10.433594 -15.078125 9.472656 -16.035156 7.738281 -15.945312 L 1.859375 -15.632812 L 1.859375 -11.300781 L 5.664062 -11.484375 L 5.664062 -4.335938 L 1.238281 -4.335938 L 1.238281 0 Z M 14.859375 0 "/></g></g></g><g fill="#9d775d" fill-opacity="1"><g transform="translate(87.099514, 25.929667)"><g><path d="M 16.625 -15.632812 L 1.238281 -15.632812 L 1.238281 -11.300781 L 12.289062 -11.300781 L 12.289062 -10.835938 L 1.238281 -8.203125 L 1.238281 0 L 16.625 0 L 16.625 -4.335938 L 5.574219 -4.335938 L 5.574219 -4.796875 L 16.625 -7.429688 Z M 16.625 -15.632812 "/></g></g></g><g clip-path="url(#9a27e041bd)"><path fill="#9d775d" d="M 85.425781 38.652344 C 84.277344 38.3125 83.371094 37.648438 82.574219 36.816406 C 81.582031 35.765625 81.65625 35.273438 79.917969 36.609375 C 79.316406 37.074219 78.765625 37.601562 78.167969 38.066406 C 77.199219 38.824219 76.648438 38.738281 76 37.6875 C 75.695312 37.183594 75.449219 36.632812 75.191406 36.09375 C 75.046875 35.800781 74.921875 35.507812 74.726562 35.054688 C 74.214844 35.617188 73.785156 36.09375 73.332031 36.558594 C 72.71875 37.210938 72.15625 37.917969 71.472656 38.46875 C 70.027344 39.632812 68.496094 39.363281 67.515625 37.773438 C 67.015625 36.964844 66.671875 36.070312 66.207031 35.089844 C 66.011719 35.386719 65.789062 35.65625 65.644531 35.949219 C 65.238281 36.78125 64.886719 37.636719 64.46875 38.457031 C 63.304688 40.699219 62.070312 41.015625 60.0625 39.472656 C 58.835938 38.53125 57.75 37.40625 56.609375 36.351562 C 55.398438 35.226562 55.410156 35.214844 54.101562 36.292969 C 53.636719 36.671875 53.183594 37.050781 52.691406 37.394531 C 50.585938 38.863281 48.53125 38.542969 46.964844 36.488281 C 46.523438 35.910156 46.15625 35.289062 45.691406 34.566406 C 45.285156 34.785156 44.871094 34.957031 44.503906 35.214844 C 43.816406 35.679688 43.207031 36.242188 42.496094 36.671875 C 41.6875 37.160156 40.832031 37.625 39.949219 37.957031 C 38.75 38.410156 37.523438 38.261719 36.410156 37.648438 C 35.566406 37.195312 34.757812 36.671875 33.960938 36.144531 C 32.566406 35.203125 31.160156 35.140625 29.679688 35.949219 C 28.183594 36.769531 26.910156 37.859375 25.710938 39.046875 C 25.480469 39.277344 25.234375 39.5 24.988281 39.71875 C 24.734375 39.953125 24.464844 39.976562 24.195312 39.667969 C 25.074219 38.789062 25.90625 37.832031 26.851562 37 C 27.683594 36.265625 28.613281 35.605469 29.566406 35.03125 C 31.109375 34.101562 32.703125 34.101562 34.257812 35.054688 C 34.84375 35.421875 35.445312 35.777344 36.042969 36.132812 C 37.707031 37.125 39.359375 37.136719 40.964844 35.984375 C 41.847656 35.347656 42.703125 34.675781 43.597656 34.050781 C 44.050781 33.734375 44.539062 33.425781 45.054688 33.21875 C 45.8125 32.914062 46.398438 33.132812 46.851562 33.816406 C 47.109375 34.199219 47.304688 34.625 47.574219 35.003906 C 47.882812 35.421875 48.210938 35.851562 48.605469 36.191406 C 49.546875 37.039062 50.527344 37.109375 51.601562 36.460938 C 51.996094 36.21875 52.363281 35.9375 52.730469 35.65625 C 53.097656 35.371094 53.4375 35.066406 53.804688 34.785156 C 55.042969 33.84375 55.714844 33.855469 56.867188 34.90625 C 57.957031 35.910156 58.996094 36.976562 60.085938 37.992188 C 60.441406 38.324219 60.84375 38.640625 61.273438 38.886719 C 62.167969 39.414062 62.609375 39.316406 63.183594 38.46875 C 63.464844 38.066406 63.683594 37.613281 63.90625 37.171875 C 64.175781 36.609375 64.40625 36.023438 64.675781 35.457031 C 64.859375 35.078125 65.054688 34.675781 65.3125 34.34375 C 66.085938 33.367188 66.941406 33.5 67.371094 34.652344 C 67.542969 35.117188 67.675781 35.59375 67.847656 36.058594 C 67.996094 36.425781 68.152344 36.792969 68.375 37.125 C 69.070312 38.152344 69.953125 38.324219 70.871094 37.492188 C 71.65625 36.792969 72.316406 35.949219 73.027344 35.175781 C 73.34375 34.835938 73.636719 34.480469 73.992188 34.1875 C 74.726562 33.597656 75.425781 33.78125 75.816406 34.636719 C 76.050781 35.152344 76.207031 35.691406 76.453125 36.191406 C 76.625 36.574219 76.871094 36.925781 77.125 37.378906 C 77.75 36.84375 78.277344 36.351562 78.851562 35.910156 C 79.402344 35.496094 79.964844 35.078125 80.566406 34.75 C 81.152344 34.417969 81.804688 34.453125 82.339844 34.882812 C 83.613281 35.925781 84.445312 37.34375 85.425781 38.652344 Z M 85.425781 38.652344 " fill-opacity="1" fill-rule="nonzero"/></g></svg>